# xmcd CD database file
#
# Track frame offsets:
#	187
#	16785
#	32320
#	48287
#	63430
#	81552
#	99380
#	115985
#	131847
#	146932
#	164682
#	181067
#	200522
#	215442
#	229242
#	244580
#	260190
#	278602
#
# Disc length: 3930 seconds
#
# Revision: 0
# Processed by: cddbd v1.5PL3 Copyright (c) Steve Scherf et al.
# Submitted via: CDex 1.51
#
DISCID=060f5812
DTITLE=青江三奈 - 全曲集　[VICL-454]
DYEAR=1993
DGENRE=Blues
TTITLE0=恍惚のブルース
TTITLE1=ブルー・ブルース
TTITLE2=眠られぬ夜のブルース
TTITLE3=伊勢佐木町ブルース
TTITLE4=札幌ブルース
TTITLE5=夕陽の町函館
TTITLE6=長崎ブルース
TTITLE7=酒場人形
TTITLE8=新宿サタデー・ナイト
TTITLE9=気まぐれブルース
TTITLE10=池袋の夜
TTITLE11=国際線待合室
TTITLE12=夜の瀬戸内
TTITLE13=木屋町の女
TTITLE14=盛岡ブルース
TTITLE15=大阪ブルース
TTITLE16=ベイブリッジ・ブルース
TTITLE17=長崎ブルース(カラオケ)
EXTD=YEAR: 1993
EXTT0=
EXTT1=
EXTT2=
EXTT3=
EXTT4=
EXTT5=
EXTT6=
EXTT7=
EXTT8=
EXTT9=
EXTT10=
EXTT11=
EXTT12=
EXTT13=
EXTT14=
EXTT15=
EXTT16=
EXTT17=
PLAYORDER=
